<?xml version="1.0" standalone="no"?>
<!DOCTYPE svg PUBLIC "-//W3C//DTD SVG 20010904//EN"
 "http://www.w3.org/TR/2001/REC-SVG-20010904/DTD/svg10.dtd">
<svg version="1.0" xmlns="http://www.w3.org/2000/svg"
 width="275.000000pt" height="236.000000pt" viewBox="0 0 275.000000 236.000000"
 preserveAspectRatio="xMidYMid meet">

<g transform="translate(0.000000,236.000000) scale(0.100000,-0.100000)"
fill="#000000" stroke="none">
<path d="M1330 2331 c-72 -11 -115 -28 -169 -68 -24 -18 -50 -33 -57 -33 -8 0
-26 -23 -40 -52 -47 -92 -132 -202 -201 -260 -71 -58 -109 -116 -117 -179 -3
-19 -8 -42 -11 -51 -7 -18 37 -70 79 -93 23 -13 14 -51 -14 -60 -26 -8 -42
-70 -34 -129 6 -38 12 -50 35 -61 16 -9 40 -12 57 -9 24 5 31 2 36 -14 9 -27
0 -43 -44 -77 -115 -89 -160 -130 -161 -144 0 -9 -25 -37 -55 -63 -47 -42 -60
-48 -99 -48 -43 0 -44 -1 -50 -37 -3 -21 -13 -51 -22 -68 -9 -16 -23 -43 -31
-58 -9 -18 -16 -68 -18 -130 -5 -120 -16 -234 -35 -335 -12 -67 -12 -78 5
-125 12 -32 18 -74 17 -110 -2 -46 1 -57 13 -57 11 0 16 10 16 31 0 17 5 39
10 49 8 14 5 33 -10 72 -25 66 -25 105 0 203 11 43 20 92 20 110 0 17 5 36 11
42 6 6 13 48 16 94 2 46 12 101 20 122 17 38 66 77 98 77 58 0 146 -54 214
-132 53 -60 136 -252 151 -350 15 -94 0 -258 -23 -258 -7 0 -7 -3 -2 -9 6 -6
45 -7 102 -1 74 7 105 15 155 41 137 71 218 131 286 211 110 130 151 182 152
194 0 6 9 19 20 29 10 9 18 20 18 24 -2 6 53 96 93 153 10 15 19 31 19 35 0
10 31 75 77 163 19 36 42 82 50 103 12 27 21 37 34 34 12 -3 15 0 12 14 -11
40 46 68 65 33 6 -12 1 -34 -19 -75 -16 -33 -29 -64 -29 -71 0 -6 -13 -39 -30
-74 -41 -86 -45 -110 -26 -129 9 -9 16 -25 16 -36 0 -10 5 -19 10 -19 6 0 10
4 10 9 0 10 66 55 156 106 28 17 61 38 71 47 18 16 20 16 36 1 15 -15 16 -15
11 5 -4 14 1 24 17 33 17 9 24 9 27 0 2 -6 10 -11 18 -11 26 0 14 -38 -21 -69
-20 -17 -40 -31 -45 -31 -5 0 -24 -13 -42 -29 -18 -16 -50 -36 -71 -44 -20 -9
-40 -23 -43 -32 -3 -8 -12 -15 -20 -15 -8 0 -14 -4 -14 -9 0 -5 -9 -13 -20
-16 -24 -8 -45 -44 -33 -56 5 -5 28 -10 51 -11 25 -1 42 -6 42 -13 0 -7 3 -27
6 -44 7 -31 6 -32 -22 -25 -16 3 -37 16 -48 28 -17 19 -18 19 -15 2 4 -20 18
-30 62 -46 22 -8 27 -15 27 -43 0 -37 -28 -71 -51 -62 -9 3 -22 -7 -33 -26
-46 -78 -147 -149 -211 -148 -31 0 -26 5 30 24 11 4 15 9 8 12 -6 2 -27 -3
-45 -13 -42 -21 -158 -113 -158 -125 0 -4 -14 -24 -31 -44 -36 -41 -16 -50 22
-9 21 22 29 25 64 19 22 -4 54 -9 70 -12 20 -3 57 6 108 26 43 17 86 31 95 31
10 0 22 4 28 10 11 11 80 -4 102 -22 9 -8 12 -4 12 16 0 32 5 32 55 1 60 -37
65 -34 65 39 0 142 -77 390 -144 465 l-21 23 25 17 c13 9 51 36 84 61 32 25
71 51 85 59 50 26 81 63 81 97 0 17 -7 37 -15 44 -20 17 -77 5 -112 -24 -15
-12 -50 -35 -78 -50 -27 -16 -73 -46 -102 -67 -29 -22 -54 -39 -57 -39 -3 0
-8 16 -12 36 -6 34 23 151 47 194 24 40 49 104 49 124 0 48 -61 63 -97 24 -21
-24 -53 -84 -53 -101 0 -6 -11 -25 -25 -43 -14 -18 -25 -37 -25 -42 0 -30 -93
-11 -135 27 -11 10 -31 21 -45 25 -14 3 -31 10 -39 15 -17 11 -5 35 61 116 26
33 48 68 48 77 0 33 39 91 100 148 55 52 60 61 60 99 0 35 4 43 24 51 32 12
40 27 37 71 -1 29 3 40 17 48 27 14 35 63 16 100 -8 17 -16 54 -16 83 -1 57
-26 102 -59 111 -10 3 -25 21 -33 41 -8 20 -31 57 -50 82 -20 26 -36 55 -36
64 0 21 -77 120 -93 120 -7 0 -35 16 -63 34 -48 33 -58 35 -150 40 -55 2 -124
1 -154 -3z m217 -52 c55 -10 71 -18 118 -61 30 -28 55 -54 55 -59 0 -6 9 -22
19 -37 20 -29 67 -243 58 -266 -4 -10 -16 -12 -49 -6 -35 7 -49 5 -74 -11 -38
-23 -100 -25 -142 -4 -16 9 -60 18 -97 22 -58 5 -70 3 -95 -16 -23 -16 -43
-21 -95 -21 l-65 0 5 128 c4 127 6 134 55 232 4 8 17 20 29 26 12 6 33 22 46
34 16 15 48 27 92 36 38 6 70 12 72 13 2 0 33 -4 68 -10z m-249 -526 c14 -12
25 -39 31 -78 14 -79 42 -105 113 -105 43 0 54 4 83 33 21 21 39 54 50 90 23
78 46 78 71 1 21 -68 70 -124 108 -124 20 0 26 -5 26 -20 0 -34 -29 -80 -50
-80 -30 0 -71 22 -66 35 2 7 -17 22 -45 36 -43 20 -52 21 -60 9 -7 -13 -10
-13 -18 -1 -6 10 -10 10 -16 1 -4 -6 0 -19 9 -29 9 -10 16 -20 16 -24 0 -10
-105 -57 -128 -57 -25 0 -28 -15 -8 -35 10 -10 47 -15 129 -16 90 -2 114 -6
110 -16 -5 -12 -40 -17 -90 -13 -17 1 -23 -4 -23 -19 0 -18 6 -21 43 -21 49 0
87 22 87 51 0 22 26 37 41 22 11 -11 -12 -63 -36 -83 -8 -7 -13 -16 -10 -20 7
-11 -47 -49 -77 -56 -48 -12 -63 -9 -73 14 -6 12 -19 22 -31 22 -19 0 -89 79
-84 95 1 4 -2 11 -7 14 -5 3 -24 26 -43 51 -19 25 -40 49 -47 53 -7 4 -13 14
-13 22 0 7 -9 16 -19 20 -22 7 -29 31 -36 130 -3 47 -10 72 -20 78 -8 4 -15
15 -15 22 0 22 72 20 98 -2z m-190 -173 c-2 -21 -7 -36 -11 -33 -5 3 -7 16 -4
29 2 14 0 27 -4 30 -15 9 -10 24 6 18 11 -5 15 -18 13 -44z m-14 -128 c32 -81
282 -332 332 -332 13 0 42 -11 64 -25 23 -14 54 -28 70 -32 44 -8 40 -40 -7
-60 -32 -13 -48 -14 -99 -4 -34 6 -76 11 -94 11 -32 0 -60 24 -85 75 -6 11
-24 22 -40 25 -20 3 -34 15 -43 33 -8 16 -24 33 -36 38 -13 6 -30 31 -42 61
-11 30 -32 61 -51 75 -28 22 -33 31 -33 70 0 45 22 113 37 113 5 0 17 -22 27
-48z m53 26 c-3 -8 -6 -5 -6 6 -1 11 2 17 5 13 3 -3 4 -12 1 -19z m488 -28 c9
-29 0 -37 -40 -32 l-36 4 23 23 c29 29 45 30 53 5z m-639 -126 l-15 -29 -1 31
c0 34 9 49 23 35 5 -5 3 -20 -7 -37z m-29 -26 c13 -30 6 -48 -18 -48 -14 0
-19 7 -19 28 0 46 20 57 37 20z m599 -429 c19 -18 24 -32 24 -75 0 -29 -4 -56
-10 -59 -5 -3 -10 0 -10 8 0 14 -43 51 -122 106 -27 17 -48 35 -48 39 0 4 32
6 71 5 58 -1 75 -5 95 -24z"/>
<path d="M1925 660 c3 -5 11 -10 16 -10 6 0 7 5 4 10 -3 6 -11 10 -16 10 -6 0
-7 -4 -4 -10z"/>
<path d="M1797 563 c-12 -12 -7 -22 8 -17 8 4 15 10 15 15 0 11 -14 12 -23 2z"/>
<path d="M1802 498 c-11 -15 -25 -58 -19 -58 3 0 14 16 26 35 19 33 15 49 -7
23z"/>
<path d="M1720 405 c-8 -9 -8 -15 -2 -15 12 0 26 19 19 26 -2 2 -10 -2 -17
-11z"/>
</g>
</svg>
